<svg width="172" height="59" viewBox="0 0 172 59" fill="none" xmlns="http://www.w3.org/2000/svg">
<path d="M38.3773 40.7867L40.8413 40.0213C41.0778 39.9467 41.2769 39.816 41.4387 39.6293C41.6004 39.4427 41.6813 39.2124 41.6813 38.9387V19.1333C41.6813 18.8596 41.5942 18.6293 41.42 18.4427C41.2582 18.256 41.0653 18.1316 40.8413 18.0693L38.3773 17.3227V16.0907H49.988C51.3444 16.0907 52.5329 16.184 53.5533 16.3707C54.5738 16.5449 55.4511 16.7876 56.1853 17.0987C56.932 17.3973 57.548 17.752 58.0333 18.1627C58.5187 18.5733 58.9044 19.0213 59.1907 19.5067C59.4769 19.9796 59.676 20.4773 59.788 21C59.9124 21.5102 59.9747 22.0267 59.9747 22.5493C59.9747 23.6071 59.788 24.5218 59.4147 25.2933C59.0538 26.0649 58.5996 26.7244 58.052 27.272C57.5044 27.8196 56.9071 28.2676 56.26 28.616C55.6253 28.952 55.0342 29.2133 54.4867 29.4L60.7213 38.6027C60.8209 38.752 60.9391 38.9076 61.076 39.0693C61.2253 39.2187 61.3871 39.3618 61.5613 39.4987C61.7356 39.6356 61.9098 39.76 62.084 39.872C62.2707 39.9716 62.4449 40.04 62.6067 40.0773L65.0893 40.7867V42H58.9667C58.3818 42 57.9027 41.9564 57.5293 41.8693C57.156 41.7822 56.8324 41.6516 56.5587 41.4773C56.2849 41.2907 56.036 41.048 55.812 40.7493C55.588 40.4382 55.3329 40.0649 55.0467 39.6293L49.6147 31.0987L47.132 30.4453V38.9387C47.132 39.2249 47.2004 39.4613 47.3373 39.648C47.4867 39.8347 47.6796 39.9591 47.916 40.0213L50.716 40.7867V42H38.3773V40.7867ZM49.652 28.7093C50.4111 28.7093 51.0707 28.56 51.6307 28.2613C52.1907 27.9502 52.6573 27.552 53.0307 27.0667C53.404 26.5689 53.6778 26.0027 53.852 25.368C54.0387 24.7333 54.132 24.08 54.132 23.408C54.132 21.6284 53.7151 20.3342 52.8813 19.5253C52.0476 18.704 50.8653 18.2933 49.3347 18.2933H47.132V28.504C47.244 28.5289 47.4058 28.5538 47.6173 28.5787C47.8413 28.5911 48.0778 28.6098 48.3267 28.6347C48.588 28.6596 48.8369 28.6782 49.0733 28.6907C49.3222 28.7031 49.5151 28.7093 49.652 28.7093Z" fill="black"/>
<path d="M78.1418 42.5413C76.2253 42.5413 74.4956 42.2364 72.9524 41.6267C71.4093 41.0044 70.0902 40.1147 68.9951 38.9573C67.9 37.8 67.0538 36.3938 66.4564 34.7387C65.8716 33.0711 65.5791 31.192 65.5791 29.1013C65.5791 27.7573 65.7222 26.488 66.0084 25.2933C66.3071 24.0987 66.724 22.9973 67.2591 21.9893C67.7942 20.9813 68.4413 20.0791 69.2004 19.2827C69.9596 18.4862 70.8058 17.8142 71.7391 17.2667C72.6724 16.7067 73.6804 16.2836 74.7631 15.9973C75.8458 15.6987 76.9844 15.5493 78.1791 15.5493C78.8138 15.5493 79.5231 15.5929 80.3071 15.68C81.1036 15.7671 81.8938 15.8791 82.6778 16.016C83.4742 16.1529 84.2271 16.3084 84.9364 16.4827C85.6582 16.6569 86.2618 16.8249 86.7471 16.9867V23.464H85.2911L83.9658 20.1413C83.8787 19.9422 83.7667 19.7867 83.6298 19.6747C83.4929 19.5502 83.3436 19.4382 83.1818 19.3387C82.4351 18.9156 81.6573 18.5858 80.8484 18.3493C80.052 18.1004 79.2058 17.976 78.3098 17.976C77.2769 17.976 76.3373 18.2062 75.4911 18.6667C74.6573 19.1147 73.9418 19.7867 73.3444 20.6827C72.7471 21.5662 72.2867 22.6613 71.9631 23.968C71.6396 25.2622 71.4778 26.7618 71.4778 28.4667C71.4778 30.2338 71.6582 31.8018 72.0191 33.1707C72.38 34.5271 72.9213 35.672 73.6431 36.6053C74.3649 37.5387 75.2547 38.248 76.3124 38.7333C77.3702 39.2187 78.5898 39.4613 79.9711 39.4613C80.8671 39.4613 81.6636 39.3618 82.3604 39.1627C83.0573 38.9511 83.6796 38.696 84.2271 38.3973C84.7747 38.0987 85.2538 37.7751 85.6644 37.4267C86.0876 37.0658 86.4796 36.7298 86.8404 36.4187H87.7365V38.5467C87.2262 38.9822 86.6164 39.4364 85.9071 39.9093C85.2102 40.3698 84.4387 40.7991 83.5924 41.1973C82.7587 41.5831 81.8751 41.9004 80.9418 42.1493C80.0209 42.4107 79.0876 42.5413 78.1418 42.5413Z" fill="black"/>
<path d="M88.382 40.7867L90.1367 40.0773C90.6594 39.8782 91.0203 39.5173 91.2194 38.9947L98.6674 20.0293L100.926 15.6987H103.539L112.686 39.0133C112.786 39.2498 112.935 39.4676 113.134 39.6667C113.333 39.8658 113.538 40.0089 113.75 40.096L115.523 40.7867V42H104.137V40.7867L107.366 39.928L104.641 33.04H96.166L93.5527 39.8347L96.7261 40.7867V42H88.382V40.7867ZM103.763 30.8187L101.299 24.5653L100.385 22.0453H100.329L97.062 30.8187H103.763Z" fill="black"/>
<path d="M124.649 24.5653L122.764 21.7653H122.708V38.8267C122.708 39.1004 122.783 39.3244 122.932 39.4987C123.081 39.6729 123.293 39.8098 123.567 39.9093L126.012 40.7867V42H116.697V40.7867L119.161 39.9093C119.398 39.8222 119.597 39.6853 119.759 39.4987C119.921 39.312 120.001 39.088 120.001 38.8267V19.208C120.001 18.9218 119.914 18.6916 119.74 18.5173C119.578 18.3307 119.385 18.2062 119.161 18.144L116.529 17.3227V16.0907H124.948L136.185 32.2373L137.884 34.7573H137.94V19.2453C137.94 18.9716 137.865 18.7538 137.716 18.592C137.567 18.4302 137.355 18.2996 137.081 18.2L134.617 17.3227V16.0907H143.951V17.3227L141.505 18.2C141.257 18.2871 141.045 18.4178 140.871 18.592C140.709 18.7662 140.628 18.984 140.628 19.2453V37.744L140.068 42.1867H136.932L124.649 24.5653Z" fill="black"/>
<path d="M144.15 40.7867L145.905 40.0773C146.428 39.8782 146.788 39.5173 146.988 38.9947L154.436 20.0293L156.694 15.6987H159.308L168.454 39.0133C168.554 39.2498 168.703 39.4676 168.902 39.6667C169.101 39.8658 169.307 40.0089 169.518 40.096L171.292 40.7867V42H159.905V40.7867L163.134 39.928L160.409 33.04H151.934L149.321 39.8347L152.494 40.7867V42H144.15V40.7867ZM159.532 30.8187L157.068 24.5653L156.153 22.0453H156.097L152.83 30.8187H159.532Z" fill="black"/>
<path d="M41.0103 51V45.33H42.0147C42.4143 45.33 42.7248 45.4569 42.9462 45.7107C43.1676 45.9645 43.2783 46.4208 43.2783 47.0796V47.1201C43.2783 47.9409 43.0785 48.462 42.6789 48.6834L43.3512 51H42.687L42.0552 48.8292H41.6583V51H41.0103ZM42.6384 47.2011V46.9581C42.6384 46.5423 42.5817 46.2534 42.4683 46.0914C42.3603 45.9294 42.2091 45.8484 42.0147 45.8484H41.6583V48.3189H42.0147C42.4305 48.3189 42.6384 47.9463 42.6384 47.2011Z" fill="black"/>
<path d="M46.2813 49.866C46.2435 50.3358 46.1328 50.6625 45.9492 50.8461C45.7656 51.0297 45.4983 51.1215 45.1473 51.1215C44.8017 51.1215 44.5263 51 44.3211 50.757C44.1213 50.5086 44.0214 50.0631 44.0214 49.4205V48.2055C44.0214 47.5629 44.1213 47.1201 44.3211 46.8771C44.5263 46.6287 44.8125 46.5045 45.1797 46.5045C45.5469 46.5045 45.825 46.626 46.014 46.869C46.203 47.112 46.2975 47.5575 46.2975 48.2055V49.0722H44.637V49.5339C44.637 50.2575 44.8098 50.6193 45.1554 50.6193C45.3228 50.6193 45.4524 50.5599 45.5442 50.4411C45.636 50.3223 45.7008 50.1009 45.7386 49.7769L46.2813 49.866ZM44.637 48.0921V48.5538H45.6738V48.0921C45.6738 47.3685 45.5037 47.0067 45.1635 47.0067C44.8125 47.0067 44.637 47.3685 44.637 48.0921Z" fill="black"/>
<path d="M46.8557 47.1282V46.626H47.285L47.5037 45.5487H47.8763V46.626H48.4514V47.1282H47.8763V50.1738C47.8763 50.46 47.9546 50.6031 48.1112 50.6031C48.2138 50.6031 48.3218 50.5599 48.4352 50.4735L48.5567 50.9514C48.3731 51.0648 48.1841 51.1215 47.9897 51.1215C47.5037 51.1215 47.2607 50.7624 47.2607 50.0442V47.1282H46.8557Z" fill="black"/>
<path d="M49.7656 51H49.1419V45.006H49.7332V47.1444C49.8628 46.7178 50.1301 46.5045 50.5351 46.5045C50.8159 46.5045 51.0292 46.6287 51.175 46.8771C51.3262 47.1255 51.4018 47.5791 51.4018 48.2379V51H50.7781V48.0192C50.7781 47.3442 50.6458 47.0067 50.3812 47.0067C49.9816 47.0067 49.7764 47.5845 49.7656 48.7401V51Z" fill="black"/>
<path d="M52.3693 51V46.626H52.993V51H52.3693ZM52.345 45.7674V45.006H53.0173V45.7674H52.345Z" fill="black"/>
<path d="M54.6383 51H54.0146V46.626H54.3953L54.5573 47.3226C54.6707 46.7772 54.9542 46.5045 55.4078 46.5045C55.6886 46.5045 55.9019 46.6287 56.0477 46.8771C56.1989 47.1255 56.2745 47.5791 56.2745 48.2379V51H55.6508V48.0192C55.6508 47.3442 55.5185 47.0067 55.2539 47.0067C54.8543 47.0067 54.6491 47.5845 54.6383 48.7401V51Z" fill="black"/>
<path d="M57.8656 51H57.2419V45.006H57.8656V48.3513L58.8538 46.626H59.5018L58.4407 48.3837L59.6395 51H58.9672L58.0762 48.9912L57.8656 49.3476V51Z" fill="black"/>
<path d="M61.5947 50.0199C61.5947 49.7121 61.4813 49.4772 61.2545 49.3152L60.6956 48.9183C60.2798 48.6429 60.0719 48.2352 60.0719 47.6952C60.0719 47.2578 60.1637 46.95 60.3473 46.7718C60.5363 46.5936 60.7901 46.5045 61.1087 46.5045C61.4273 46.5045 61.6757 46.5882 61.8539 46.7556C62.0321 46.923 62.1401 47.2281 62.1779 47.6709L61.619 47.7843C61.592 47.2605 61.4246 46.9986 61.1168 46.9986C60.8144 46.9986 60.6632 47.2119 60.6632 47.6385C60.6632 47.9841 60.7766 48.2406 61.0034 48.408L61.538 48.7806C61.673 48.8724 61.7783 48.9561 61.8539 49.0317C61.9349 49.1019 62.0105 49.2234 62.0807 49.3962C62.1563 49.5636 62.1941 49.7607 62.1941 49.9875C62.1941 50.4033 62.0969 50.6976 61.9025 50.8704C61.7081 51.0378 61.4435 51.1215 61.1087 51.1215C60.7793 51.1215 60.5201 51.0243 60.3311 50.8299C60.1421 50.6301 60.026 50.2818 59.9828 49.785L60.5579 49.6797C60.5795 50.0307 60.6335 50.2764 60.7199 50.4168C60.8117 50.5572 60.9359 50.6274 61.0925 50.6274C61.4273 50.6274 61.5947 50.4249 61.5947 50.0199Z" fill="black"/>
<path d="M64.7294 49.4367C64.7294 49.8795 64.7807 50.1846 64.8833 50.352C64.9859 50.514 65.1317 50.595 65.3207 50.595C65.5097 50.595 65.6501 50.5248 65.7419 50.3844C65.8391 50.2386 65.9039 49.9659 65.9363 49.5663L66.5033 49.6392C66.4547 50.19 66.3305 50.5761 66.1307 50.7975C65.9363 51.0135 65.6555 51.1215 65.2883 51.1215C64.9211 51.1215 64.6295 50.9892 64.4135 50.7246C64.1975 50.46 64.0895 49.974 64.0895 49.2666V47.0634C64.0895 46.356 64.1975 45.87 64.4135 45.6054C64.6295 45.3408 64.9184 45.2085 65.2802 45.2085C65.6474 45.2085 65.9255 45.303 66.1145 45.492C66.3089 45.681 66.4277 46.0185 66.4709 46.5045L65.8796 46.6503C65.8472 46.3047 65.7851 46.0671 65.6933 45.9375C65.6069 45.8025 65.4746 45.735 65.2964 45.735C65.1236 45.735 64.9859 45.8214 64.8833 45.9942C64.7807 46.1616 64.7294 46.4721 64.7294 46.9257V49.4367Z" fill="black"/>
<path d="M69.3952 48.2055V49.4205C69.3952 50.0631 69.2953 50.5086 69.0955 50.757C68.9011 51 68.6203 51.1215 68.2531 51.1215C67.8913 51.1215 67.6105 51 67.4107 50.757C67.2163 50.5086 67.1191 50.0631 67.1191 49.4205V48.2055C67.1191 47.5629 67.2163 47.1201 67.4107 46.8771C67.6105 46.6287 67.8913 46.5045 68.2531 46.5045C68.6203 46.5045 68.9011 46.6287 69.0955 46.8771C69.2953 47.1201 69.3952 47.5629 69.3952 48.2055ZM68.7715 49.5339V48.0921C68.7715 47.3685 68.6014 47.0067 68.2612 47.0067C67.9102 47.0067 67.7347 47.3685 67.7347 48.0921V49.5339C67.7347 50.2575 67.9102 50.6193 68.2612 50.6193C68.6014 50.6193 68.7715 50.2575 68.7715 49.5339Z" fill="black"/>
<path d="M70.9253 51H70.3016V46.626H70.6823L70.8443 47.3145C70.9469 46.7745 71.2142 46.5045 71.6462 46.5045C72.0566 46.5045 72.3158 46.7691 72.4238 47.2983C72.5372 46.7691 72.8045 46.5045 73.2257 46.5045C73.5011 46.5045 73.7117 46.6287 73.8575 46.8771C74.0087 47.1255 74.0843 47.5791 74.0843 48.2379V51H73.4606V48.0192C73.4606 47.3442 73.3337 47.0067 73.0799 47.0067C72.7073 47.0067 72.5156 47.5845 72.5048 48.7401V51H71.8811V48.0192C71.8811 47.3442 71.7569 47.0067 71.5085 47.0067C71.1305 47.0067 70.9361 47.5845 70.9253 48.7401V51Z" fill="black"/>
<path d="M75.0556 46.626H75.4363L75.5983 47.3307C75.7225 46.7799 75.9979 46.5045 76.4245 46.5045C76.7107 46.5045 76.9294 46.626 77.0806 46.869C77.2318 47.112 77.3074 47.5575 77.3074 48.2055V49.4205C77.3074 50.0685 77.2318 50.514 77.0806 50.757C76.9294 51 76.7107 51.1215 76.4245 51.1215C76.0303 51.1215 75.7711 50.8677 75.6469 50.3601V52.458H75.0556V46.626ZM75.6469 48.813C75.6469 49.299 75.6766 49.6824 75.736 49.9632C75.8008 50.244 75.8737 50.4249 75.9547 50.5059C76.0357 50.5815 76.1437 50.6193 76.2787 50.6193C76.5703 50.6193 76.7161 50.2845 76.7161 49.6149V48.0111C76.7161 47.3415 76.573 47.0067 76.2868 47.0067C76.1626 47.0067 76.0573 47.0445 75.9709 47.1201C75.8899 47.1957 75.817 47.3631 75.7522 47.6223C75.6874 47.8815 75.6523 48.2406 75.6469 48.6996V48.813Z" fill="black"/>
<path d="M78.2118 51V46.626H78.8355V51H78.2118ZM78.1875 45.7674V45.006H78.8598V45.7674H78.1875Z" fill="black"/>
<path d="M79.8571 51V45.006H80.4808V51H79.8571Z" fill="black"/>
<path d="M83.6489 49.866C83.6111 50.3358 83.5004 50.6625 83.3168 50.8461C83.1332 51.0297 82.8659 51.1215 82.5149 51.1215C82.1693 51.1215 81.8939 51 81.6887 50.757C81.4889 50.5086 81.389 50.0631 81.389 49.4205V48.2055C81.389 47.5629 81.4889 47.1201 81.6887 46.8771C81.8939 46.6287 82.1801 46.5045 82.5473 46.5045C82.9145 46.5045 83.1926 46.626 83.3816 46.869C83.5706 47.112 83.6651 47.5575 83.6651 48.2055V49.0722H82.0046V49.5339C82.0046 50.2575 82.1774 50.6193 82.523 50.6193C82.6904 50.6193 82.82 50.5599 82.9118 50.4411C83.0036 50.3223 83.0684 50.1009 83.1062 49.7769L83.6489 49.866ZM82.0046 48.0921V48.5538H83.0414V48.0921C83.0414 47.3685 82.8713 47.0067 82.5311 47.0067C82.1801 47.0067 82.0046 47.3685 82.0046 48.0921Z" fill="black"/>
<path d="M85.9242 46.5045L86.0862 46.5126L86.0376 47.2011C85.962 47.1633 85.8891 47.1444 85.8189 47.1444C85.4085 47.1444 85.2006 47.571 85.1952 48.4242V51H84.5715V46.626H84.9522L85.1304 47.3712C85.2384 46.7934 85.503 46.5045 85.9242 46.5045Z" fill="black"/>
<path d="M89.7261 51L89.475 49.5258H88.3329L88.0899 51H87.4419L88.4787 45.33H89.3373L90.3741 51H89.7261ZM88.908 46.1481L88.422 49.0074H89.3859L88.908 46.1481Z" fill="black"/>
<path d="M91.6017 45.006V47.1525C91.7475 46.7205 92.0067 46.5045 92.3793 46.5045C92.6655 46.5045 92.8842 46.626 93.0354 46.869C93.1866 47.112 93.2622 47.5575 93.2622 48.2055V49.4205C93.2622 50.0685 93.1866 50.514 93.0354 50.757C92.8842 51 92.6655 51.1215 92.3793 51.1215C91.9527 51.1215 91.6827 50.8218 91.5693 50.2224L91.3911 51H91.0104V45.006H91.6017ZM91.6017 48.813C91.6017 49.299 91.6314 49.6824 91.6908 49.9632C91.7556 50.244 91.8285 50.4249 91.9095 50.5059C91.9905 50.5815 92.0985 50.6193 92.2335 50.6193C92.5251 50.6193 92.6709 50.2845 92.6709 49.6149V48.0111C92.6709 47.3415 92.5278 47.0067 92.2416 47.0067C92.1174 47.0067 92.0121 47.0445 91.9257 47.1201C91.8447 47.1957 91.7718 47.3631 91.707 47.6223C91.6422 47.8815 91.6071 48.2406 91.6017 48.6996V48.813Z" fill="black"/>
<path d="M95.6083 50.0199C95.6083 49.7121 95.495 49.4772 95.2682 49.3152L94.7093 48.9183C94.2935 48.6429 94.0855 48.2352 94.0855 47.6952C94.0855 47.2578 94.1774 46.95 94.361 46.7718C94.55 46.5936 94.8037 46.5045 95.1223 46.5045C95.4409 46.5045 95.6893 46.5882 95.8675 46.7556C96.0458 46.923 96.1538 47.2281 96.1916 47.6709L95.6326 47.7843C95.6056 47.2605 95.4383 46.9986 95.1305 46.9986C94.8281 46.9986 94.6768 47.2119 94.6768 47.6385C94.6768 47.9841 94.7903 48.2406 95.0171 48.408L95.5517 48.7806C95.6867 48.8724 95.7919 48.9561 95.8675 49.0317C95.9485 49.1019 96.0241 49.2234 96.0943 49.3962C96.1699 49.5636 96.2078 49.7607 96.2078 49.9875C96.2078 50.4033 96.1105 50.6976 95.9161 50.8704C95.7217 51.0378 95.4571 51.1215 95.1223 51.1215C94.7929 51.1215 94.5337 51.0243 94.3447 50.8299C94.1557 50.6301 94.0396 50.2818 93.9964 49.785L94.5715 49.6797C94.5931 50.0307 94.6472 50.2764 94.7336 50.4168C94.8254 50.5572 94.9496 50.6274 95.1062 50.6274C95.441 50.6274 95.6083 50.4249 95.6083 50.0199Z" fill="black"/>
<path d="M96.7055 47.1282V46.626H97.1348L97.3535 45.5487H97.7261V46.626H98.3012V47.1282H97.7261V50.1738C97.7261 50.46 97.8044 50.6031 97.961 50.6031C98.0636 50.6031 98.1716 50.5599 98.285 50.4735L98.4065 50.9514C98.2229 51.0648 98.0339 51.1215 97.8395 51.1215C97.3535 51.1215 97.1105 50.7624 97.1105 50.0442V47.1282H96.7055Z" fill="black"/>
<path d="M100.344 46.5045L100.506 46.5126L100.458 47.2011C100.382 47.1633 100.309 47.1444 100.239 47.1444C99.8288 47.1444 99.6208 47.571 99.6154 48.4242V51H98.9917V46.626H99.3724L99.5506 47.3712C99.6586 46.7934 99.9232 46.5045 100.344 46.5045Z" fill="black"/>
<path d="M100.934 49.6473C100.934 49.1343 101.01 48.786 101.161 48.6024C101.312 48.4134 101.528 48.3189 101.809 48.3189C102.09 48.3189 102.311 48.4269 102.473 48.6429V47.7924C102.473 47.274 102.311 47.0148 101.987 47.0148C101.712 47.0148 101.45 47.1741 101.202 47.4927L100.983 47.0391C101.107 46.8879 101.264 46.761 101.453 46.6584C101.647 46.5558 101.844 46.5045 102.044 46.5045C102.746 46.5045 103.097 46.9797 103.097 47.9301V51H102.716L102.587 50.4735C102.527 50.6895 102.427 50.8515 102.287 50.9595C102.152 51.0675 101.998 51.1215 101.825 51.1215C101.534 51.1215 101.312 51.0297 101.161 50.8461C101.01 50.6571 100.934 50.3061 100.934 49.7931V49.6473ZM101.955 50.6112C102.111 50.6112 102.233 50.5545 102.319 50.4411C102.411 50.3277 102.462 50.1225 102.473 49.8255V49.6068C102.462 49.2882 102.411 49.0668 102.319 48.9426C102.233 48.8184 102.111 48.7563 101.955 48.7563C101.685 48.7563 101.55 49.0128 101.55 49.5258V49.8417C101.55 50.3547 101.685 50.6112 101.955 50.6112Z" fill="black"/>
<path d="M106.128 49.7283C106.084 50.2521 105.968 50.6166 105.779 50.8218C105.59 51.0216 105.331 51.1215 105.002 51.1215C104.678 51.1215 104.421 51.0081 104.232 50.7813C104.043 50.5491 103.949 50.1495 103.949 49.5825V48.2055C103.949 47.5629 104.043 47.1201 104.232 46.8771C104.421 46.6287 104.678 46.5045 105.002 46.5045C105.331 46.5045 105.588 46.5936 105.771 46.7718C105.955 46.95 106.066 47.2713 106.103 47.7357L105.536 47.8896C105.515 47.301 105.35 47.0067 105.042 47.0067C104.886 47.0067 104.767 47.0769 104.686 47.2173C104.605 47.3577 104.564 47.6493 104.564 48.0921V49.6392C104.564 50.0172 104.605 50.2737 104.686 50.4087C104.772 50.5437 104.894 50.6112 105.05 50.6112C105.207 50.6112 105.328 50.5464 105.415 50.4168C105.501 50.2818 105.563 50.0253 105.601 49.6473L106.128 49.7283Z" fill="black"/>
<path d="M106.514 47.1282V46.626H106.943L107.162 45.5487H107.535V46.626H108.11V47.1282H107.535V50.1738C107.535 50.46 107.613 50.6031 107.77 50.6031C107.872 50.6031 107.98 50.5599 108.094 50.4735L108.215 50.9514C108.031 51.0648 107.842 51.1215 107.648 51.1215C107.162 51.1215 106.919 50.7624 106.919 50.0442V47.1282H106.514Z" fill="black"/>
<path d="M108.8 51V46.626H109.424V51H108.8ZM108.776 45.7674V45.006H109.448V45.7674H108.776Z" fill="black"/>
<path d="M112.608 48.2055V49.4205C112.608 50.0631 112.508 50.5086 112.309 50.757C112.114 51 111.833 51.1215 111.466 51.1215C111.104 51.1215 110.824 51 110.624 50.757C110.429 50.5086 110.332 50.0631 110.332 49.4205V48.2055C110.332 47.5629 110.429 47.1201 110.624 46.8771C110.824 46.6287 111.104 46.5045 111.466 46.5045C111.833 46.5045 112.114 46.6287 112.309 46.8771C112.508 47.1201 112.608 47.5629 112.608 48.2055ZM111.985 49.5339V48.0921C111.985 47.3685 111.815 47.0067 111.474 47.0067C111.123 47.0067 110.948 47.3685 110.948 48.0921V49.5339C110.948 50.2575 111.123 50.6193 111.474 50.6193C111.815 50.6193 111.985 50.2575 111.985 49.5339Z" fill="black"/>
<path d="M114.138 51H113.515V46.626H113.895L114.057 47.3226C114.171 46.7772 114.454 46.5045 114.908 46.5045C115.189 46.5045 115.402 46.6287 115.548 46.8771C115.699 47.1255 115.775 47.5791 115.775 48.2379V51H115.151V48.0192C115.151 47.3442 115.019 47.0067 114.754 47.0067C114.354 47.0067 114.149 47.5845 114.138 48.7401V51Z" fill="black"/>
<path d="M118.184 50.0199C118.184 49.7121 118.071 49.4772 117.844 49.3152L117.285 48.9183C116.869 48.6429 116.661 48.2352 116.661 47.6952C116.661 47.2578 116.753 46.95 116.937 46.7718C117.126 46.5936 117.379 46.5045 117.698 46.5045C118.017 46.5045 118.265 46.5882 118.443 46.7556C118.621 46.923 118.729 47.2281 118.767 47.6709L118.208 47.7843C118.181 47.2605 118.014 46.9986 117.706 46.9986C117.404 46.9986 117.252 47.2119 117.252 47.6385C117.252 47.9841 117.366 48.2406 117.593 48.408L118.127 48.7806C118.262 48.8724 118.368 48.9561 118.443 49.0317C118.524 49.1019 118.6 49.2234 118.67 49.3962C118.746 49.5636 118.783 49.7607 118.783 49.9875C118.783 50.4033 118.686 50.6976 118.492 50.8704C118.297 51.0378 118.033 51.1215 117.698 51.1215C117.369 51.1215 117.109 51.0243 116.92 50.8299C116.731 50.6301 116.615 50.2818 116.572 49.785L117.147 49.6797C117.169 50.0307 117.223 50.2764 117.309 50.4168C117.401 50.5572 117.525 50.6274 117.682 50.6274C118.017 50.6274 118.184 50.4249 118.184 50.0199Z" fill="black"/>
<path d="M122.08 45.5082C121.988 45.4542 121.886 45.4272 121.772 45.4272C121.524 45.4272 121.4 45.7728 121.4 46.464V46.626H121.91V47.1282H121.4V51H120.784V47.1282H120.436V46.626H120.784V46.5855C120.784 45.9429 120.865 45.5001 121.027 45.2571C121.189 45.0087 121.416 44.8845 121.707 44.8845C121.891 44.8845 122.058 44.9169 122.21 44.9817L122.08 45.5082Z" fill="black"/>
<path d="M124.703 48.2055V49.4205C124.703 50.0631 124.603 50.5086 124.403 50.757C124.209 51 123.928 51.1215 123.561 51.1215C123.199 51.1215 122.918 51 122.718 50.757C122.524 50.5086 122.427 50.0631 122.427 49.4205V48.2055C122.427 47.5629 122.524 47.1201 122.718 46.8771C122.918 46.6287 123.199 46.5045 123.561 46.5045C123.928 46.5045 124.209 46.6287 124.403 46.8771C124.603 47.1201 124.703 47.5629 124.703 48.2055ZM124.079 49.5339V48.0921C124.079 47.3685 123.909 47.0067 123.569 47.0067C123.218 47.0067 123.042 47.3685 123.042 48.0921V49.5339C123.042 50.2575 123.218 50.6193 123.569 50.6193C123.909 50.6193 124.079 50.2575 124.079 49.5339Z" fill="black"/>
<path d="M126.962 46.5045L127.124 46.5126L127.076 47.2011C127 47.1633 126.927 47.1444 126.857 47.1444C126.446 47.1444 126.239 47.571 126.233 48.4242V51H125.609V46.626H125.99L126.168 47.3712C126.276 46.7934 126.541 46.5045 126.962 46.5045Z" fill="black"/>
<path d="M129.492 51H128.86V45.33H129.533L130.853 49.4772V45.33H131.485V51H130.813L129.492 46.8609V51Z" fill="black"/>
<path d="M134.654 49.866C134.616 50.3358 134.505 50.6625 134.321 50.8461C134.138 51.0297 133.871 51.1215 133.52 51.1215C133.174 51.1215 132.899 51 132.693 50.757C132.494 50.5086 132.394 50.0631 132.394 49.4205V48.2055C132.394 47.5629 132.494 47.1201 132.693 46.8771C132.899 46.6287 133.185 46.5045 133.552 46.5045C133.919 46.5045 134.197 46.626 134.386 46.869C134.575 47.112 134.67 47.5575 134.67 48.2055V49.0722H133.009V49.5339C133.009 50.2575 133.182 50.6193 133.528 50.6193C133.695 50.6193 133.825 50.5599 133.916 50.4411C134.008 50.3223 134.073 50.1009 134.111 49.7769L134.654 49.866ZM133.009 48.0921V48.5538H134.046V48.0921C134.046 47.3685 133.876 47.0067 133.536 47.0067C133.185 47.0067 133.009 47.3685 133.009 48.0921Z" fill="black"/>
<path d="M137.852 51L137.269 47.598L136.686 51H136.062L135.26 46.626H135.876L136.402 49.8984L136.953 46.626H137.577L138.144 49.8903L138.67 46.626H139.278L138.484 51H137.852Z" fill="black"/>
<path d="M143.048 51L142.797 49.5258H141.655L141.412 51H140.764L141.801 45.33H142.66L143.696 51H143.048ZM142.23 46.1481L141.744 49.0074H142.708L142.23 46.1481Z" fill="black"/>
<path d="M144.333 46.626H144.713L144.875 47.3307C145 46.7799 145.275 46.5045 145.702 46.5045C145.988 46.5045 146.207 46.626 146.358 46.869C146.509 47.112 146.585 47.5575 146.585 48.2055V49.4205C146.585 50.0685 146.509 50.514 146.358 50.757C146.207 51 145.988 51.1215 145.702 51.1215C145.307 51.1215 145.048 50.8677 144.924 50.3601V52.458H144.333V46.626ZM144.924 48.813C144.924 49.299 144.954 49.6824 145.013 49.9632C145.078 50.244 145.151 50.4249 145.232 50.5059C145.313 50.5815 145.421 50.6193 145.556 50.6193C145.847 50.6193 145.993 50.2845 145.993 49.6149V48.0111C145.993 47.3415 145.85 47.0067 145.564 47.0067C145.44 47.0067 145.334 47.0445 145.248 47.1201C145.167 47.1957 145.094 47.3631 145.029 47.6223C144.965 47.8815 144.929 48.2406 144.924 48.6996V48.813Z" fill="black"/>
<path d="M147.489 46.626H147.87L148.032 47.3307C148.156 46.7799 148.431 46.5045 148.858 46.5045C149.144 46.5045 149.363 46.626 149.514 46.869C149.665 47.112 149.741 47.5575 149.741 48.2055V49.4205C149.741 50.0685 149.665 50.514 149.514 50.757C149.363 51 149.144 51.1215 148.858 51.1215C148.464 51.1215 148.204 50.8677 148.08 50.3601V52.458H147.489V46.626ZM148.08 48.813C148.08 49.299 148.11 49.6824 148.169 49.9632C148.234 50.244 148.307 50.4249 148.388 50.5059C148.469 50.5815 148.577 50.6193 148.712 50.6193C149.004 50.6193 149.149 50.2845 149.149 49.6149V48.0111C149.149 47.3415 149.006 47.0067 148.72 47.0067C148.596 47.0067 148.491 47.0445 148.404 47.1201C148.323 47.1957 148.25 47.3631 148.186 47.6223C148.121 47.8815 148.086 48.2406 148.08 48.6996V48.813Z" fill="black"/>
<path d="M150.645 51V45.006H151.269V51H150.645Z" fill="black"/>
<path d="M152.29 51V46.626H152.914V51H152.29ZM152.266 45.7674V45.006H152.938V45.7674H152.266Z" fill="black"/>
<path d="M156.001 49.7283C155.958 50.2521 155.842 50.6166 155.653 50.8218C155.464 51.0216 155.205 51.1215 154.875 51.1215C154.551 51.1215 154.295 51.0081 154.106 50.7813C153.917 50.5491 153.822 50.1495 153.822 49.5825V48.2055C153.822 47.5629 153.917 47.1201 154.106 46.8771C154.295 46.6287 154.551 46.5045 154.875 46.5045C155.205 46.5045 155.461 46.5936 155.645 46.7718C155.828 46.95 155.939 47.2713 155.977 47.7357L155.41 47.8896C155.388 47.301 155.224 47.0067 154.916 47.0067C154.759 47.0067 154.64 47.0769 154.559 47.2173C154.478 47.3577 154.438 47.6493 154.438 48.0921V49.6392C154.438 50.0172 154.478 50.2737 154.559 50.4087C154.646 50.5437 154.767 50.6112 154.924 50.6112C155.08 50.6112 155.202 50.5464 155.288 50.4168C155.375 50.2818 155.437 50.0253 155.475 49.6473L156.001 49.7283Z" fill="black"/>
<path d="M156.59 49.6473C156.59 49.1343 156.666 48.786 156.817 48.6024C156.968 48.4134 157.184 48.3189 157.465 48.3189C157.746 48.3189 157.967 48.4269 158.129 48.6429V47.7924C158.129 47.274 157.967 47.0148 157.643 47.0148C157.368 47.0148 157.106 47.1741 156.857 47.4927L156.639 47.0391C156.763 46.8879 156.919 46.761 157.108 46.6584C157.303 46.5558 157.5 46.5045 157.7 46.5045C158.402 46.5045 158.753 46.9797 158.753 47.9301V51H158.372L158.242 50.4735C158.183 50.6895 158.083 50.8515 157.943 50.9595C157.808 51.0675 157.654 51.1215 157.481 51.1215C157.189 51.1215 156.968 51.0297 156.817 50.8461C156.666 50.6571 156.59 50.3061 156.59 49.7931V49.6473ZM157.611 50.6112C157.767 50.6112 157.889 50.5545 157.975 50.4411C158.067 50.3277 158.118 50.1225 158.129 49.8255V49.6068C158.118 49.2882 158.067 49.0668 157.975 48.9426C157.889 48.8184 157.767 48.7563 157.611 48.7563C157.341 48.7563 157.206 49.0128 157.206 49.5258V49.8417C157.206 50.3547 157.341 50.6112 157.611 50.6112Z" fill="black"/>
<path d="M159.37 47.1282V46.626H159.799L160.018 45.5487H160.39V46.626H160.965V47.1282H160.39V50.1738C160.39 50.46 160.469 50.6031 160.625 50.6031C160.728 50.6031 160.836 50.5599 160.949 50.4735L161.071 50.9514C160.887 51.0648 160.698 51.1215 160.504 51.1215C160.018 51.1215 159.775 50.7624 159.775 50.0442V47.1282H159.37Z" fill="black"/>
<path d="M161.656 51V46.626H162.28V51H161.656ZM161.632 45.7674V45.006H162.304V45.7674H161.632Z" fill="black"/>
<path d="M165.464 48.2055V49.4205C165.464 50.0631 165.364 50.5086 165.164 50.757C164.97 51 164.689 51.1215 164.322 51.1215C163.96 51.1215 163.679 51 163.48 50.757C163.285 50.5086 163.188 50.0631 163.188 49.4205V48.2055C163.188 47.5629 163.285 47.1201 163.48 46.8771C163.679 46.6287 163.96 46.5045 164.322 46.5045C164.689 46.5045 164.97 46.6287 165.164 46.8771C165.364 47.1201 165.464 47.5629 165.464 48.2055ZM164.84 49.5339V48.0921C164.84 47.3685 164.67 47.0067 164.33 47.0067C163.979 47.0067 163.804 47.3685 163.804 48.0921V49.5339C163.804 50.2575 163.979 50.6193 164.33 50.6193C164.67 50.6193 164.84 50.2575 164.84 49.5339Z" fill="black"/>
<path d="M166.994 51H166.37V46.626H166.751L166.913 47.3226C167.027 46.7772 167.31 46.5045 167.764 46.5045C168.044 46.5045 168.258 46.6287 168.404 46.8771C168.555 47.1255 168.63 47.5791 168.63 48.2379V51H168.007V48.0192C168.007 47.3442 167.874 47.0067 167.61 47.0067C167.21 47.0067 167.005 47.5845 166.994 48.7401V51Z" fill="black"/>
<path d="M171.04 50.0199C171.04 49.7121 170.926 49.4772 170.699 49.3152L170.141 48.9183C169.725 48.6429 169.517 48.2352 169.517 47.6952C169.517 47.2578 169.609 46.95 169.792 46.7718C169.981 46.5936 170.235 46.5045 170.554 46.5045C170.872 46.5045 171.121 46.5882 171.299 46.7556C171.477 46.923 171.585 47.2281 171.623 47.6709L171.064 47.7843C171.037 47.2605 170.87 46.9986 170.562 46.9986C170.259 46.9986 170.108 47.2119 170.108 47.6385C170.108 47.9841 170.222 48.2406 170.448 48.408L170.983 48.7806C171.118 48.8724 171.223 48.9561 171.299 49.0317C171.38 49.1019 171.455 49.2234 171.526 49.3962C171.601 49.5636 171.639 49.7607 171.639 49.9875C171.639 50.4033 171.542 50.6976 171.347 50.8704C171.153 51.0378 170.888 51.1215 170.554 51.1215C170.224 51.1215 169.965 51.0243 169.776 50.8299C169.587 50.6301 169.471 50.2818 169.428 49.785L170.003 49.6797C170.024 50.0307 170.078 50.2764 170.165 50.4168C170.257 50.5572 170.381 50.6274 170.537 50.6274C170.872 50.6274 171.04 50.4249 171.04 50.0199Z" fill="black"/>
<path d="M34.9972 13.0651C33.9682 13.6597 32.7738 14 31.5 14C28.1577 14 25.3625 11.6575 24.6665 8.52472C24.2214 9.30673 23.5 10.9001 23.6051 12.8771C23.6114 12.9957 23.6208 13.1322 23.6314 13.2844C23.7333 14.7515 23.9358 17.6679 22.3574 19.9348C19.0529 24.0342 18.8999 24.2743 18.5096 24.887C18.4044 25.0521 18.282 25.2442 18.0761 25.5461C17.6676 26.1451 17.0463 27.5698 16.262 29.368C15.1837 31.8404 13.7974 35.0189 12.2329 37.7287C10.328 40.4572 8.6243 42.5564 7.8107 43.5589C7.52228 43.9142 7.34572 44.1318 7.31172 44.1907C7.22473 44.3413 6.97897 44.9627 6.66086 45.7669C6.01298 47.4048 5.06503 49.8013 4.54726 50.5252C3.77526 51.6046 2 54.2621 2 54.2621C2 54.2621 2.04107 56.231 2.59906 56.5532C3.15705 56.8754 4.92142 57.1031 5.09906 57.0532C5.2767 57.0032 9.35215 52.6046 10.0991 51.0532C10.846 49.5018 14.0744 44.5532 14.0744 44.5532L16 41.5532C16 41.5532 16.6311 38.9151 17.1594 38C17.2635 37.8198 17.8575 37.2318 18.5268 36.5692C19.2932 35.8105 20.1584 34.9541 20.5 34.5C20.7241 34.2021 20.9457 33.6462 21.1924 32.9768L23 29C24.2141 27.3415 26.0597 24.2037 27.4832 21.7836C28.4942 20.0646 29.2924 18.7076 29.5 18.5C30 18 30.7331 17.7525 30.7331 17.7525C34.6293 16.1522 34.9678 13.5119 34.9972 13.0651Z" fill="black"/>
<circle cx="31.5" cy="7" r="6" fill="#8556CB"/>
<ellipse cx="29.2936" cy="3.72535" rx="1.5" ry="1" transform="rotate(-39.4578 29.2936 3.72535)" fill="white"/>
<path d="M38.32 52L33 18C33 18 32.5 18 31.5 18.5C30.5 19 30 19.5 30 19.5L26 27L27.904 39.596H17.6393C17.6393 39.596 17.1393 41 17.1393 41.5C17.1393 42 16.1393 43.18 16.1393 43.18H28.548L30.228 53.288L25.664 54.8L25.244 56.788H42.184L42.632 54.8L39.692 53.708C39.3 53.5773 38.992 53.3627 38.768 53.064C38.544 52.7467 38.3947 52.392 38.32 52Z" fill="black"/>
</svg>
